<svg width="98" height="98" viewBox="0 0 98 98" fill="none" xmlns="http://www.w3.org/2000/svg">
<g opacity="0.3">
<path d="M87.5877 26.8352L71.7967 26.0695L70.8779 15.7719C70.6865 13.609 68.7533 12.0969 66.4947 12.2691L9.85762 16.9203C7.59903 17.1117 5.97207 18.9301 6.14434 21.0738L10.2021 66.2074C10.3936 68.3703 12.3459 69.8824 14.5854 69.7102L17.4564 69.4805L16.9971 78.2469C16.8822 80.6586 18.758 82.6109 21.2846 82.7449L84.4678 85.75C86.9943 85.8649 89.0807 84.1039 89.2146 81.6922L91.8752 31.2949C91.99 28.9023 90.0951 26.95 87.5877 26.8352ZM19.6576 27.8496L18.2986 53.6512L14.949 58.3789L11.8674 24.3086V24.2129V24.1172C12.0588 23.1602 12.7096 22.3945 13.7049 22.318L63.6619 18.2219C64.6572 18.1453 65.5186 18.7961 65.6717 19.734C65.6717 19.7723 65.7291 19.7723 65.7291 19.8105C65.7291 19.8297 65.7865 19.8488 65.7865 19.8871L66.3033 25.7824L24.3854 23.7727C21.8588 23.6961 19.7725 25.457 19.6576 27.8496ZM83.5873 73.1938L67.356 54.1488L60.1975 60.7141L46.9521 45.2484L23.4666 70.2652L25.4572 32.1563V32.0797C25.6486 31.0461 26.6439 30.2996 27.735 30.357L83.4725 33.0367C84.5826 33.0941 85.4439 33.9363 85.4631 34.9891C85.4631 35.0273 85.5205 35.0465 85.5205 35.0848L83.5873 73.1938Z" fill="white"/>
<path d="M73.5 49C76.8687 49 79.625 46.2437 79.625 42.875C79.625 39.5062 76.8879 36.75 73.5 36.75C70.1312 36.75 67.375 39.4871 67.375 42.875C67.375 46.2629 70.1121 49 73.5 49Z" fill="white"/>
</g>
</svg>
